<svg id="Ebene_1" data-name="Ebene 1" xmlns="http://www.w3.org/2000/svg" viewBox="0 0 347.7 55.69"><defs><style>.cls-1{fill:#7797aa;}.cls-2{fill:#1b3862;}</style></defs><rect class="cls-1" x="124" width="1.75" height="55.69"/><path class="cls-1" d="M149.1,25.22c2.1,0,3.27-.7,3.27-2.22a3.37,3.37,0,0,0-.24-1.17,2.61,2.61,0,0,0-.81-.81,3.58,3.58,0,0,0-1.17-.59c-.47-.11-.82-.35-1.29-.46s-1.05-.35-1.51-.59a4.73,4.73,0,0,1-1.29-.82,4.42,4.42,0,0,1-.82-1.16,3.46,3.46,0,0,1-.35-1.64,3.86,3.86,0,0,1,1.29-3,5.79,5.79,0,0,1,3.62-1.05,14.28,14.28,0,0,1,2.45.23,8.35,8.35,0,0,1,1.63.58l-.7,1.64a6.81,6.81,0,0,0-1.28-.59,5.85,5.85,0,0,0-2.1-.23,2.81,2.81,0,0,0-1.05.12c-.35.11-.59.23-.94.35a1.19,1.19,0,0,0-.58.7,2.12,2.12,0,0,0-.23.93,3.31,3.31,0,0,0,.23,1.05,1.93,1.93,0,0,0,.7.7,6.27,6.27,0,0,0,.93.59c.35.11.82.35,1.29.46a12.51,12.51,0,0,1,1.75.82,4.19,4.19,0,0,1,1.4.94,5,5,0,0,1,.93,1.28,3.81,3.81,0,0,1,.36,1.75,3.6,3.6,0,0,1-1.41,3,6.41,6.41,0,0,1-4,1.05,7,7,0,0,1-1.63-.12c-.47-.12-.93-.12-1.28-.23s-.71-.24-.94-.35l-.7-.35.58-1.75a6.93,6.93,0,0,0,1.52.58A6.67,6.67,0,0,0,149.1,25.22Z"/><path class="cls-1" d="M161.36,27A4.92,4.92,0,0,1,159,26.5a4.67,4.67,0,0,1-1.75-1.16,4.82,4.82,0,0,1-1.05-1.87,8,8,0,0,1,0-4.67,5.77,5.77,0,0,1,1.05-1.87,5.31,5.31,0,0,1,1.64-1.17,6.9,6.9,0,0,1,2.21-.46,7.08,7.08,0,0,1,1.52.11l1.4.35-.46,1.64-1.06-.35a4.22,4.22,0,0,0-1.28-.12A3.27,3.27,0,0,0,158.67,18a4.73,4.73,0,0,0-.93,3,6.74,6.74,0,0,0,.23,1.63,4.61,4.61,0,0,0,.58,1.29,3,3,0,0,0,1.17.81,3.64,3.64,0,0,0,1.64.24,5.11,5.11,0,0,0,1.4-.12,5.27,5.27,0,0,0,1.05-.35l.23,1.63c-.11.12-.23.12-.46.24a1.6,1.6,0,0,1-.71.11c-.23,0-.58.12-.81.12S161.71,27,161.36,27Z"/><path class="cls-1" d="M166.14,26.62V10.51l2-.35v5.72c.35-.12.82-.23,1.17-.35a4.6,4.6,0,0,1,1.28-.12,6,6,0,0,1,2.22.35,3.31,3.31,0,0,1,1.4,1,3.56,3.56,0,0,1,.7,1.64,10.19,10.19,0,0,1,.23,2.1v6.19h-2V20.9a7.53,7.53,0,0,0-.12-1.75,3.41,3.41,0,0,0-.46-1.17,2.41,2.41,0,0,0-.82-.7,4.13,4.13,0,0,0-1.29-.23h-.7c-.23,0-.46.11-.7.11s-.35.12-.58.12-.23.12-.35.12v9.22Z"/><path class="cls-1" d="M181.56,15.3a4.56,4.56,0,0,1,2,.35,3.57,3.57,0,0,1,1.29.81,2.7,2.7,0,0,1,.7,1.4,7.45,7.45,0,0,1,.23,1.76V26.5a4.09,4.09,0,0,1-.7.12c-.35,0-.7.12-1.05.12s-.82.11-1.29.11h-1.28a8.75,8.75,0,0,1-1.75-.23,7.28,7.28,0,0,1-1.4-.58,2.93,2.93,0,0,1-.94-1.05,3.79,3.79,0,0,1-.35-1.64,3,3,0,0,1,.35-1.52,3.19,3.19,0,0,1,1.05-1,6.24,6.24,0,0,1,1.52-.58,8.85,8.85,0,0,1,1.75-.23h.59a.92.92,0,0,1,.58.11c.23,0,.35.12.47.12a.43.43,0,0,1,.35.12v-.59a2.19,2.19,0,0,0-.12-.93,5.59,5.59,0,0,0-.35-.82,3,3,0,0,0-.7-.58,3.51,3.51,0,0,0-1.28-.24,8.16,8.16,0,0,0-1.76.12,5.35,5.35,0,0,1-1,.23l-.23-1.63a6.15,6.15,0,0,1,1.28-.35A14.12,14.12,0,0,1,181.56,15.3Zm.23,9.92h1.28c.35,0,.7-.12.94-.12V21.83c-.12-.11-.35-.11-.7-.23s-.7-.12-1.17-.12a2.48,2.48,0,0,0-.93.12,2.94,2.94,0,0,0-.94.23,3,3,0,0,0-.7.59,1.26,1.26,0,0,0-.23.93,1.73,1.73,0,0,0,.7,1.52A2.62,2.62,0,0,0,181.79,25.22Z"/><path class="cls-1" d="M195.92,10.51l2-.35V26.39c-.47.11-1.05.23-1.75.35a15.36,15.36,0,0,1-2.45.23,7.65,7.65,0,0,1-2.34-.35,4.57,4.57,0,0,1-1.75-1.17,5.72,5.72,0,0,1-1.17-1.87,7.82,7.82,0,0,1-.35-2.45,7.63,7.63,0,0,1,.35-2.33,9.62,9.62,0,0,1,.94-1.87,4.85,4.85,0,0,1,1.52-1.17,5.61,5.61,0,0,1,2.1-.46,8.75,8.75,0,0,1,1.75.23,4.43,4.43,0,0,1,1.05.47V10.51Zm0,7.47a4.46,4.46,0,0,0-1-.58,3.15,3.15,0,0,0-1.52-.24,2.5,2.5,0,0,0-1.4.35,3.37,3.37,0,0,0-.94.82,4.48,4.48,0,0,0-.58,1.29,6.94,6.94,0,0,0-.12,1.63,4.71,4.71,0,0,0,.94,3,3.25,3.25,0,0,0,2.57,1.05,5.11,5.11,0,0,0,1.4-.12c.35,0,.58-.12.81-.12V18Z"/><path class="cls-1" d="M200.35,21.13a6,6,0,0,1,.47-2.57A6.08,6.08,0,0,1,202,16.7a4.84,4.84,0,0,1,1.63-1,5.2,5.2,0,0,1,1.87-.35,4,4,0,0,1,3.39,1.4A6.25,6.25,0,0,1,210,20.9v.7h-7.58a4,4,0,0,0,1,2.57,3.73,3.73,0,0,0,2.68.93,6.88,6.88,0,0,0,1.75-.23,5.27,5.27,0,0,0,1.05-.35l.24,1.63a5.69,5.69,0,0,1-1.29.35,10.13,10.13,0,0,1-2.1.24,5.42,5.42,0,0,1-2.45-.47,6.37,6.37,0,0,1-1.75-1.17,4.68,4.68,0,0,1-1-1.87A9.19,9.19,0,0,1,200.35,21.13Zm7.71-1.05a3.37,3.37,0,0,0-.7-2.22,2.19,2.19,0,0,0-1.87-.81,3.38,3.38,0,0,0-1.17.23,2.72,2.72,0,0,0-.93.7,2.45,2.45,0,0,0-.58.93,3.42,3.42,0,0,0-.24,1.17Z"/><path class="cls-1" d="M212.61,15.88a18.4,18.4,0,0,1,1.87-.35,15.81,15.81,0,0,1,2.57-.23,5.8,5.8,0,0,1,2.22.35,3.15,3.15,0,0,1,1.4,1,3.47,3.47,0,0,1,.7,1.63,10.27,10.27,0,0,1,.23,2.1v6.19h-2V20.78A7.53,7.53,0,0,0,219.5,19a3.42,3.42,0,0,0-.47-1.17,2.39,2.39,0,0,0-.81-.7,4.43,4.43,0,0,0-1.29-.23h-1.4a1,1,0,0,0-.58.12.44.44,0,0,0-.35.11V26.5h-2Z"/><path class="cls-1" d="M224.52,15.88c.47-.12,1-.23,1.75-.35a15.81,15.81,0,0,1,2.57-.23,6.88,6.88,0,0,1,1.75.23,2.91,2.91,0,0,1,1.17.82c.12-.12.23-.12.47-.35a4.68,4.68,0,0,1,.82-.35l1-.35a4.22,4.22,0,0,1,1.28-.12,5.7,5.7,0,0,1,2.1.35,2.79,2.79,0,0,1,1.29,1,4,4,0,0,1,.58,1.63,11.16,11.16,0,0,1,.12,2.11V26.5h-2V20.67a7.15,7.15,0,0,0-.11-1.64c-.12-.47-.24-.82-.35-1.17a2,2,0,0,0-.71-.7,3.62,3.62,0,0,0-1.16-.23,6.46,6.46,0,0,0-1.64.23l-.93.47a4,4,0,0,1,.23,1.17c0,.46.12.93.12,1.4v6.19h-2V20.55a7.15,7.15,0,0,0-.11-1.64c-.12-.46-.24-.81-.35-1.16a2,2,0,0,0-.7-.7,3.37,3.37,0,0,0-1.17-.24h-1.29a1,1,0,0,0-.58.12.42.42,0,0,0-.35.12v9.34h-2V15.88Z"/><path class="cls-1" d="M246.12,15.3a4.58,4.58,0,0,1,2,.35,3.44,3.44,0,0,1,1.28.81,2.63,2.63,0,0,1,.7,1.4,6.92,6.92,0,0,1,.24,1.76V26.5a4.07,4.07,0,0,1-.71.12c-.35,0-.7.12-1.05.12s-.81.11-1.28.11H246a8.85,8.85,0,0,1-1.76-.23,7.84,7.84,0,0,1-1.4-.58,2.82,2.82,0,0,1-.93-1.05,3.79,3.79,0,0,1-.35-1.64,3,3,0,0,1,.35-1.52,3,3,0,0,1,1.05-1,6.08,6.08,0,0,1,1.52-.58,8.75,8.75,0,0,1,1.75-.23h.58a.93.93,0,0,1,.59.11c.23,0,.35.12.46.12a.41.41,0,0,1,.35.12v-.59a2.38,2.38,0,0,0-.11-.93,6.93,6.93,0,0,0-.35-.82,3.2,3.2,0,0,0-.7-.58,3.52,3.52,0,0,0-1.29-.24,8,8,0,0,0-1.75.12,5.67,5.67,0,0,1-1.05.23l-.23-1.63a6.15,6.15,0,0,1,1.28-.35A12.49,12.49,0,0,1,246.12,15.3Zm.12,9.92h1.28c.35,0,.7-.12.94-.12V21.83c-.12-.11-.35-.11-.7-.23s-.7-.12-1.17-.12a2.48,2.48,0,0,0-.93.12,2.88,2.88,0,0,0-.94.23,3,3,0,0,0-.7.59,1.26,1.26,0,0,0-.23.93,1.73,1.73,0,0,0,.7,1.52A2.78,2.78,0,0,0,246.24,25.22Z"/><path class="cls-1" d="M253.36,15.88a18.4,18.4,0,0,1,1.87-.35,15.71,15.71,0,0,1,2.57-.23,5.8,5.8,0,0,1,2.22.35,3.15,3.15,0,0,1,1.4,1,3.47,3.47,0,0,1,.7,1.63,11,11,0,0,1,.23,2.1v6.19h-2V20.78a7.53,7.53,0,0,0-.12-1.75,3.42,3.42,0,0,0-.47-1.17,2.39,2.39,0,0,0-.81-.7,4.43,4.43,0,0,0-1.29-.23h-1.4a1,1,0,0,0-.58.12.44.44,0,0,0-.35.11V26.5h-2Z"/><path class="cls-1" d="M268.77,15.3a4.58,4.58,0,0,1,2,.35,3.44,3.44,0,0,1,1.28.81,2.63,2.63,0,0,1,.7,1.4,6.92,6.92,0,0,1,.24,1.76V26.5a4.09,4.09,0,0,1-.7.12c-.35,0-.71.12-1.06.12s-.81.11-1.28.11h-1.28a8.85,8.85,0,0,1-1.76-.23,7.84,7.84,0,0,1-1.4-.58,2.82,2.82,0,0,1-.93-1.05,3.79,3.79,0,0,1-.35-1.64,3,3,0,0,1,.35-1.52,3,3,0,0,1,1.05-1,6.08,6.08,0,0,1,1.52-.58,8.75,8.75,0,0,1,1.75-.23h.58a.93.93,0,0,1,.59.11c.23,0,.35.12.46.12a.41.41,0,0,1,.35.12v-.59a2.38,2.38,0,0,0-.11-.93,6.93,6.93,0,0,0-.35-.82,3.2,3.2,0,0,0-.7-.58,3.52,3.52,0,0,0-1.29-.24,8,8,0,0,0-1.75.12,5.67,5.67,0,0,1-1.05.23l-.23-1.63a6.15,6.15,0,0,1,1.28-.35A14,14,0,0,1,268.77,15.3Zm.24,9.92h1.28c.35,0,.7-.12.93-.12V21.83c-.11-.11-.35-.11-.7-.23s-.7-.12-1.16-.12a2.54,2.54,0,0,0-.94.12,2.88,2.88,0,0,0-.93.23,2.85,2.85,0,0,0-.7.59,1.22,1.22,0,0,0-.24.93,1.76,1.76,0,0,0,.7,1.52A3.37,3.37,0,0,0,269,25.22Z"/><path class="cls-1" d="M283,25.57a7,7,0,0,1-.94.47,4,4,0,0,1-1.75.23,4.94,4.94,0,0,1-1.87-.35A6.38,6.38,0,0,1,277,25a5,5,0,0,1-1.06-1.64,7.63,7.63,0,0,1-.35-2.33,6.89,6.89,0,0,1,.35-2.22A4.4,4.4,0,0,1,277,17.05a8,8,0,0,1,1.63-1.17,6.91,6.91,0,0,1,2.22-.47,14.2,14.2,0,0,1,2.45.24c.7.11,1.28.23,1.75.35v9.92a5,5,0,0,1-1.28,3.74,5.81,5.81,0,0,1-4,1.16,11.43,11.43,0,0,1-2-.11l-1.63-.35.35-1.75c.35.11.93.35,1.4.46a8.77,8.77,0,0,0,1.75.24,4,4,0,0,0,2.57-.7,3,3,0,0,0,.82-2.22v-.82Zm-.12-8.29c-.23,0-.47-.12-.82-.12s-.81-.11-1.4-.11a3,3,0,0,0-2.45,1.05,4.23,4.23,0,0,0-.82,2.8,6.65,6.65,0,0,0,.24,1.63,2.37,2.37,0,0,0,.7,1.17,2.72,2.72,0,0,0,.93.7,3.37,3.37,0,0,0,1.17.24,4.26,4.26,0,0,0,1.4-.24,4.47,4.47,0,0,0,1-.46V17.28Z"/><path class="cls-1" d="M287.45,21.13a6,6,0,0,1,.47-2.57,6.08,6.08,0,0,1,1.17-1.86,4.84,4.84,0,0,1,1.63-1,5.2,5.2,0,0,1,1.87-.35A4,4,0,0,1,296,16.7a6.25,6.25,0,0,1,1.16,4.2v.7h-7.58a4,4,0,0,0,1.05,2.57,3.73,3.73,0,0,0,2.68.93,6.88,6.88,0,0,0,1.75-.23,5.27,5.27,0,0,0,1-.35l.24,1.63a5.69,5.69,0,0,1-1.29.35,10.13,10.13,0,0,1-2.1.24,5.42,5.42,0,0,1-2.45-.47,6.52,6.52,0,0,1-1.75-1.17,4.68,4.68,0,0,1-1.05-1.87A5.31,5.31,0,0,1,287.45,21.13ZM295,20.08a3.37,3.37,0,0,0-.7-2.22,2.17,2.17,0,0,0-1.87-.81,3.37,3.37,0,0,0-1.16.23,2.86,2.86,0,0,0-.94.7,2.58,2.58,0,0,0-.58.93,3.43,3.43,0,0,0-.23,1.17Z"/><path class="cls-1" d="M299.6,15.88c.46-.12,1-.23,1.75-.35a15.71,15.71,0,0,1,2.57-.23,6.94,6.94,0,0,1,1.75.23,3.06,3.06,0,0,1,1.17.82c.11-.12.23-.12.46-.35a5,5,0,0,1,.82-.35l1.05-.35a4.26,4.26,0,0,1,1.28-.12,5.79,5.79,0,0,1,2.11.35,2.82,2.82,0,0,1,1.28,1,3.84,3.84,0,0,1,.58,1.63,11.16,11.16,0,0,1,.12,2.11V26.5h-2V20.67a6.56,6.56,0,0,0-.12-1.64c-.12-.47-.23-.82-.35-1.17a2,2,0,0,0-.7-.7,3.63,3.63,0,0,0-1.17-.23,6.3,6.3,0,0,0-1.63.23l-.94.47a4.07,4.07,0,0,1,.24,1.17c0,.46.11.93.11,1.4v6.19h-2V20.55a6.56,6.56,0,0,0-.12-1.64c-.12-.46-.23-.81-.35-1.16a1.93,1.93,0,0,0-.7-.7,3.37,3.37,0,0,0-1.17-.24H302.4a1.07,1.07,0,0,0-.59.12.43.43,0,0,0-.35.12v9.34h-2V15.88Z"/><path class="cls-1" d="M317,21.13a6,6,0,0,1,.47-2.57,6.08,6.08,0,0,1,1.17-1.86,4.75,4.75,0,0,1,1.63-1,5.2,5.2,0,0,1,1.87-.35,4,4,0,0,1,3.39,1.4,6.25,6.25,0,0,1,1.16,4.2v.7h-7.59a4,4,0,0,0,1.06,2.57,3.73,3.73,0,0,0,2.68.93,6.88,6.88,0,0,0,1.75-.23,5.27,5.27,0,0,0,1.05-.35l.24,1.63a5.69,5.69,0,0,1-1.29.35,10.13,10.13,0,0,1-2.1.24,5.42,5.42,0,0,1-2.45-.47,6.37,6.37,0,0,1-1.75-1.17,4.68,4.68,0,0,1-1-1.87A9.19,9.19,0,0,1,317,21.13Zm7.59-1.05a3.37,3.37,0,0,0-.7-2.22,2.19,2.19,0,0,0-1.87-.81,3.37,3.37,0,0,0-1.16.23,2.86,2.86,0,0,0-.94.7,2.45,2.45,0,0,0-.58.93,3.42,3.42,0,0,0-.24,1.17Z"/><path class="cls-1" d="M329.25,15.88a18.4,18.4,0,0,1,1.87-.35,15.81,15.81,0,0,1,2.57-.23,5.8,5.8,0,0,1,2.22.35,3.15,3.15,0,0,1,1.4,1,3.47,3.47,0,0,1,.7,1.63,10.27,10.27,0,0,1,.23,2.1v6.19h-2V20.78a7.53,7.53,0,0,0-.12-1.75,3.42,3.42,0,0,0-.47-1.17,2.39,2.39,0,0,0-.81-.7,4.43,4.43,0,0,0-1.29-.23h-1.4a1,1,0,0,0-.58.12.44.44,0,0,0-.35.11V26.5h-2Z"/><path class="cls-1" d="M342.91,15.65h4.21v1.63h-4.21v5.14a4.69,4.69,0,0,0,.12,1.4,2.86,2.86,0,0,0,.35.82,1.16,1.16,0,0,0,.58.46,2.26,2.26,0,0,0,.94.12,4.57,4.57,0,0,0,1.4-.23,4.38,4.38,0,0,1,.7-.24l.35,1.64a6,6,0,0,1-1.05.35,7.43,7.43,0,0,1-1.75.23,8.58,8.58,0,0,1-1.87-.23,3.09,3.09,0,0,1-1.17-.82,3.86,3.86,0,0,1-.58-1.4,9,9,0,0,1-.24-2V12.61l2-.35v3.39Z"/><path class="cls-2" d="M62,18.8a9.09,9.09,0,0,0-2.92-2.22,10.39,10.39,0,0,0-4-.82,10,10,0,0,0-4.2.82A9.51,9.51,0,0,0,47.64,19a13,13,0,0,0-2.22,3.74,12.15,12.15,0,0,0-.82,4.67,11.78,11.78,0,0,0,.82,4.67,13,13,0,0,0,2.22,3.73,9.67,9.67,0,0,0,3.27,2.46,9.32,9.32,0,0,0,4,.81,8.8,8.8,0,0,0,4.32-1,8.39,8.39,0,0,0,3.15-2.92l6.65,5A14.42,14.42,0,0,1,63.17,45a17.57,17.57,0,0,1-7.24,1.52,24.39,24.39,0,0,1-7.83-1.29,19.6,19.6,0,0,1-6.18-3.85,17.24,17.24,0,0,1-4.09-6.07,19.62,19.62,0,0,1-1.4-7.94,21.68,21.68,0,0,1,1.4-7.94,17.83,17.83,0,0,1,4.09-6.07A18.5,18.5,0,0,1,48.1,9.46a21.08,21.08,0,0,1,7.83-1.29,27.83,27.83,0,0,1,3.15.24,16.73,16.73,0,0,1,3.27.93,14.8,14.8,0,0,1,3,1.64,13.72,13.72,0,0,1,2.69,2.56Z"/><path class="cls-2" d="M104.15,26.5V43.08a27.93,27.93,0,0,1-7.36,2.69,35.14,35.14,0,0,1-7.82.82,24.33,24.33,0,0,1-7.82-1.29A19.72,19.72,0,0,1,75,41.45a17.46,17.46,0,0,1-4.09-6.07,19.62,19.62,0,0,1-1.4-7.94,21.89,21.89,0,0,1,1.4-7.94A18,18,0,0,1,75,13.43a18.47,18.47,0,0,1,6.19-3.86A21.23,21.23,0,0,1,89,8.29a27.86,27.86,0,0,1,7.94,1.05A15.32,15.32,0,0,1,103.33,13l-5.61,6.19a10.77,10.77,0,0,0-3.61-2.57A13.29,13.29,0,0,0,89,15.76a12,12,0,0,0-4.67.82A9.41,9.41,0,0,0,80.8,19a10.77,10.77,0,0,0-2.22,3.74,12.15,12.15,0,0,0-.82,4.67,11.78,11.78,0,0,0,.82,4.67,13,13,0,0,0,2.22,3.73,10.57,10.57,0,0,0,3.5,2.46,12,12,0,0,0,4.67.81,15.66,15.66,0,0,0,4.43-.58,20.77,20.77,0,0,0,3-1.17V26.5Z"/><polygon class="cls-2" points="23.35 9.34 23.35 23.59 26.39 27.55 23.35 31.52 23.35 45.65 31.29 45.65 31.29 9.34 23.35 9.34"/><polygon class="cls-2" points="7.94 23.47 7.94 9.34 0 9.34 0 45.65 7.94 45.65 7.94 31.64 19.38 31.64 22.53 27.55 19.38 23.47 7.94 23.47"/><path class="cls-2" d="M151.67,38.3a2.88,2.88,0,0,1-.59,1.75,2.81,2.81,0,0,1-1.52.93,3,3,0,0,0,.59.7l.7,1c.23.35.47.82.7,1.17a5.3,5.3,0,0,1,.58,1.17h-1c-.23-.35-.35-.7-.58-1L149.8,43a7.92,7.92,0,0,0-.7-.94c-.24-.35-.47-.58-.59-.82h-2.45v3.86h-.93V35.73c.35-.12.7-.12,1.17-.24s.81-.11,1.28-.11a4.87,4.87,0,0,1,2.92.7A2.52,2.52,0,0,1,151.67,38.3Zm-3.86-2.11h-.93a1.44,1.44,0,0,0-.7.12V40.4h1.28a4.7,4.7,0,0,0,1.29-.12,3.6,3.6,0,0,0,1.05-.23c.35-.12.47-.35.7-.59a2.27,2.27,0,0,0,.23-1.05,2.34,2.34,0,0,0-.23-1,2,2,0,0,0-.7-.7,3.27,3.27,0,0,0-.94-.35A3.14,3.14,0,0,0,147.81,36.19Z"/><path class="cls-2" d="M155.05,41.45a6.74,6.74,0,0,1,.24-1.64,9.35,9.35,0,0,1,.7-1.16,1.66,1.66,0,0,1,1-.7,3.36,3.36,0,0,1,1.16-.24,2.85,2.85,0,0,1,2.11.82,4.11,4.11,0,0,1,.81,2.68v.47h-5a2.79,2.79,0,0,0,.7,2,2.43,2.43,0,0,0,2,.7,3.51,3.51,0,0,0,1.17-.12c.23-.12.46-.12.58-.23l.12.81c-.12.12-.35.12-.7.24a4.67,4.67,0,0,1-1.29.11A6.67,6.67,0,0,1,157,45a2.48,2.48,0,0,1-1-.82A3.63,3.63,0,0,1,155.4,43,2.29,2.29,0,0,1,155.05,41.45Zm5-.59a3.92,3.92,0,0,0-.46-1.75,1.49,1.49,0,0,0-1.41-.58,1.72,1.72,0,0,0-.81.23c-.24.12-.47.35-.7.47a2.39,2.39,0,0,0-.47.7,7.89,7.89,0,0,0-.23.93Z"/><path class="cls-2" d="M165.56,47.52h-.93V38.06a2.4,2.4,0,0,1,1.05-.23,5.93,5.93,0,0,1,1.51-.12,4.94,4.94,0,0,1,1.41.24,2.34,2.34,0,0,1,1.05.7,2.46,2.46,0,0,1,.7,1.16,6.3,6.3,0,0,1,.23,1.52,6.23,6.23,0,0,1-.23,1.52,3.58,3.58,0,0,1-.59,1.17,2.46,2.46,0,0,1-1,.81,2.64,2.64,0,0,1-1.4.24,2.89,2.89,0,0,1-1.17-.24,3.49,3.49,0,0,1-.7-.35v3Zm0-3.74c.12.12.23.12.35.24s.23.11.47.23.35.12.58.12.35.11.59.11a3.37,3.37,0,0,0,1.16-.23,1.19,1.19,0,0,0,.7-.58,1.32,1.32,0,0,0,.35-.94,3.48,3.48,0,0,0,.12-1.16,2.86,2.86,0,0,0-.7-2.11,3.27,3.27,0,0,0-2.92-.58,4.71,4.71,0,0,0-.58.12v4.78Z"/><path class="cls-2" d="M176.54,37.71a3.36,3.36,0,0,1,1.16.24,2,2,0,0,1,.82.58,2,2,0,0,1,.47.82,3.42,3.42,0,0,1,.11,1V45a.43.43,0,0,0-.35.12,5.08,5.08,0,0,1-.58.11c-.23,0-.47.12-.82.12h-.81a3.2,3.2,0,0,1-1.06-.12,4.54,4.54,0,0,1-.81-.35,2.85,2.85,0,0,1-.59-.7,2.4,2.4,0,0,1-.23-1.05,3.6,3.6,0,0,1,.23-1c.12-.35.35-.46.59-.7a1.33,1.33,0,0,1,.93-.35,3.88,3.88,0,0,1,1.17-.12h.82c.23,0,.23,0,.35.12s.11,0,.23.12V39.93a.91.91,0,0,0-.23-.58c-.12-.24-.35-.35-.47-.47a2,2,0,0,0-.93-.12,3.17,3.17,0,0,0-1.17.12c-.24.12-.47.12-.59.23l-.11-.81c.11-.12.35-.12.7-.24A1.41,1.41,0,0,1,176.54,37.71Zm.11,6.66h.94a1.46,1.46,0,0,0,.7-.12V41.68c-.12,0-.24-.11-.47-.11s-.47-.12-.93-.12h-.7a1.79,1.79,0,0,0-.71.23.92.92,0,0,0-.46.47,1.63,1.63,0,0,0-.24.7,1.44,1.44,0,0,0,.12.7,1.73,1.73,0,0,0,.35.47.93.93,0,0,0,.58.23A1.71,1.71,0,0,0,176.65,44.37Z"/><path class="cls-2" d="M185.53,37.71a1.65,1.65,0,0,1,.81.12,1.27,1.27,0,0,0,.59.12l-.24.81c-.11,0-.23-.11-.46-.11s-.47-.12-.94-.12a2.19,2.19,0,0,0-.93.12c-.24,0-.35.11-.47.11v6.31H183V38.3a6.34,6.34,0,0,1,.93-.35A6.74,6.74,0,0,1,185.53,37.71Z"/><path class="cls-2" d="M191,35.73a.57.57,0,0,1-.23.46.6.6,0,0,1-.47.24.87.87,0,0,1-.7-.7.6.6,0,0,1,.24-.47.57.57,0,0,1,.46-.23.81.81,0,0,1,.7.7Zm-.23,9.34h-.93V38h.93Z"/><path class="cls-2" d="M194.4,41.45a7.29,7.29,0,0,1,.23-1.64,12.65,12.65,0,0,1,.7-1.16,1.71,1.71,0,0,1,1-.7,4.07,4.07,0,0,1,1.17-.24,2.82,2.82,0,0,1,2.1.82,4,4,0,0,1,.82,2.68v.47h-5a2.75,2.75,0,0,0,.7,2,2.43,2.43,0,0,0,2,.7,3.48,3.48,0,0,0,1.16-.12c.24-.12.47-.12.59-.23l.11.81c-.11.12-.35.12-.7.24a4.59,4.59,0,0,1-1.28.11,6.76,6.76,0,0,1-1.64-.23,2.61,2.61,0,0,1-1-.82,3.82,3.82,0,0,1-.58-1.16A2.29,2.29,0,0,1,194.4,41.45Zm5-.59a3.79,3.79,0,0,0-.47-1.75,1.58,1.58,0,0,0-1.4-.58,1.8,1.8,0,0,0-.82.23c-.23.12-.46.35-.7.47a2.34,2.34,0,0,0-.46.7c-.12.23-.12.58-.24.93Z"/><path class="cls-2" d="M206.42,37.71a1.67,1.67,0,0,1,.82.12,1.27,1.27,0,0,0,.59.12l-.24.81c-.11,0-.23-.11-.46-.11s-.47-.12-.94-.12a2.19,2.19,0,0,0-.93.12c-.24,0-.35.11-.47.11v6.31H204V38.3a7,7,0,0,1,.94-.35A5.69,5.69,0,0,1,206.42,37.71Z"/><path class="cls-2" d="M210.39,41.45a6.74,6.74,0,0,1,.24-1.64,10.75,10.75,0,0,1,.7-1.16,1.66,1.66,0,0,1,1-.7,4.07,4.07,0,0,1,1.17-.24,2.85,2.85,0,0,1,2.1.82,4,4,0,0,1,.82,2.68v.47h-5a2.75,2.75,0,0,0,.7,2,2.42,2.42,0,0,0,2,.7,3.51,3.51,0,0,0,1.17-.12c.23-.12.47-.12.58-.23l.12.81c-.12.12-.35.12-.7.24a4.67,4.67,0,0,1-1.29.11,6.74,6.74,0,0,1-1.63-.23,2.48,2.48,0,0,1-1-.82,3.61,3.61,0,0,1-.58-1.16A3.19,3.19,0,0,1,210.39,41.45Zm5-.59a3.92,3.92,0,0,0-.47-1.75,1.59,1.59,0,0,0-1.4-.58,1.76,1.76,0,0,0-.82.23c-.23.12-.47.35-.7.47a2.6,2.6,0,0,0-.47.7c-.11.23-.11.58-.23.93Z"/><path class="cls-2" d="M220.09,38.18a6.15,6.15,0,0,1,1-.23,6.94,6.94,0,0,1,1.63-.12,4.57,4.57,0,0,1,1.4.23,1.26,1.26,0,0,1,.82.7,2.33,2.33,0,0,1,.47,1.05,4.67,4.67,0,0,1,.11,1.29v4h-.93V41.33a4.22,4.22,0,0,0-.12-1.28,4.68,4.68,0,0,0-.35-.82,1.18,1.18,0,0,0-.58-.47,2.46,2.46,0,0,0-.94-.11,2.77,2.77,0,0,0-1.05.11,2.32,2.32,0,0,0-.58.12v6.3h-.93v-7Z"/><path class="cls-2" d="M235.85,44.37a4.11,4.11,0,0,0,1.28-.24.77.77,0,0,0,.47-.81c0-.24,0-.35-.12-.47s-.11-.23-.35-.35a2.45,2.45,0,0,0-.58-.35,6.1,6.1,0,0,0-.82-.35,5.59,5.59,0,0,0-.82-.35,1.34,1.34,0,0,1-.58-.35,1.21,1.21,0,0,1-.47-.59,1.79,1.79,0,0,1-.11-.81,1.65,1.65,0,0,1,.7-1.4,2.85,2.85,0,0,1,1.75-.59,3.22,3.22,0,0,1,1.17.12c.23.12.58.12.7.23l-.24.82a2.17,2.17,0,0,1-.58-.23,3.17,3.17,0,0,0-1.17-.12,1,1,0,0,0-.58.12.6.6,0,0,0-.47.23l-.35.35a.7.7,0,0,0-.12.47.67.67,0,0,0,.12.46l.35.35c.12.12.35.24.47.35l.7.35c.23.12.58.24.82.36a2.47,2.47,0,0,1,.7.46,1.14,1.14,0,0,1,.46.59,1.62,1.62,0,0,1,.24.81,1.76,1.76,0,0,1-.7,1.52,3.36,3.36,0,0,1-2,.47,4.69,4.69,0,0,1-1.4-.12,4,4,0,0,0-.7-.23l.23-.82a.37.37,0,0,1,.24.12.44.44,0,0,0,.35.11,4.71,4.71,0,0,0,.58.12A1,1,0,0,1,235.85,44.37Z"/><path class="cls-2" d="M242.74,37.83h2.8v.82h-2.8v3.73a2.46,2.46,0,0,0,.11.94c.12.23.12.46.35.58s.24.23.47.23.35.12.58.12a2.26,2.26,0,0,0,.94-.12c.23-.11.35-.11.58-.23l.24.7a1,1,0,0,1-.71.23,3.14,3.14,0,0,1-1.05.12,3.48,3.48,0,0,1-1.16-.12,1,1,0,0,1-.7-.46,2.25,2.25,0,0,1-.35-.94,4.22,4.22,0,0,1-.12-1.28V35.61l.93-.12v2.34Z"/><path class="cls-2" d="M251,37.71a3.36,3.36,0,0,1,1.16.24,2,2,0,0,1,.82.58,2,2,0,0,1,.47.82,3.42,3.42,0,0,1,.11,1V45a.43.43,0,0,0-.35.12c-.23,0-.35.11-.58.11s-.47.12-.82.12H251a3.14,3.14,0,0,1-1.05-.12,4.37,4.37,0,0,1-.82-.35,2.85,2.85,0,0,1-.59-.7,2.4,2.4,0,0,1-.23-1.05,3.6,3.6,0,0,1,.23-1,3.27,3.27,0,0,1,.59-.7,1.33,1.33,0,0,1,.93-.35,3.88,3.88,0,0,1,1.17-.12h.82c.23,0,.23,0,.35.12s.11,0,.23.12V39.93a.91.91,0,0,0-.23-.58c-.12-.24-.35-.35-.47-.47a2,2,0,0,0-.93-.12,3.17,3.17,0,0,0-1.17.12c-.24.12-.47.12-.59.23l-.11-.81c.11-.12.35-.12.7-.24A1.41,1.41,0,0,1,251,37.71Zm.11,6.66h.94a1.46,1.46,0,0,0,.7-.12V41.68c-.12,0-.24-.11-.47-.11s-.47-.12-.93-.12h-.7a1.7,1.7,0,0,0-.7.23.9.9,0,0,0-.47.47,1.63,1.63,0,0,0-.24.7,1.44,1.44,0,0,0,.12.7,1.73,1.73,0,0,0,.35.47.94.94,0,0,0,.59.23A1.9,1.9,0,0,0,251.14,44.37Z"/><path class="cls-2" d="M258.38,37.83h2.8v.82h-2.8v3.73a2.26,2.26,0,0,0,.12.94c.12.23.12.46.35.58s.23.23.47.23.35.12.58.12a2.19,2.19,0,0,0,.93-.12c.24-.11.35-.11.59-.23l.23.7a1,1,0,0,1-.7.23,3.14,3.14,0,0,1-1.05.12,3.51,3.51,0,0,1-1.17-.12,1.06,1.06,0,0,1-.7-.46,2.25,2.25,0,0,1-.35-.94,4.22,4.22,0,0,1-.12-1.28V35.61l.94-.12v2.34Z"/><path class="cls-2" d="M265.39,37.83h2.8v.82h-2.8v3.73a2.46,2.46,0,0,0,.11.94c.12.23.12.46.35.58s.24.23.47.23.35.12.58.12a2.24,2.24,0,0,0,.94-.12c.23-.11.35-.11.58-.23l.24.7a1,1,0,0,1-.7.23,3.2,3.2,0,0,1-1.06.12,3.48,3.48,0,0,1-1.16-.12,1,1,0,0,1-.7-.46,2.25,2.25,0,0,1-.35-.94,4.22,4.22,0,0,1-.12-1.28V35.61l.93-.12v2.34Z"/><path class="cls-2" d="M276.48,45.07V35.49H282v.82h-4.56v3.27h4.09v.82h-4.09v3.85h4.91v.82Z"/><path class="cls-2" d="M288.15,37.71a1.69,1.69,0,0,1,.82.12,1.27,1.27,0,0,0,.59.12l-.24.81c-.11,0-.23-.11-.47-.11a9.2,9.2,0,0,0-.93-.12,2.19,2.19,0,0,0-.93.12c-.24,0-.35.11-.47.11v6.31h-.82V38.3a7,7,0,0,1,.94-.35A5.69,5.69,0,0,1,288.15,37.71Z"/><path class="cls-2" d="M294,44.37a4.12,4.12,0,0,0,1.29-.24.76.76,0,0,0,.46-.81c0-.24,0-.35-.11-.47s-.12-.23-.35-.35a2.54,2.54,0,0,0-.59-.35,5.41,5.41,0,0,0-.81-.35,6.1,6.1,0,0,0-.82-.35,1.39,1.39,0,0,1-.59-.35,1.14,1.14,0,0,1-.46-.59,2,2,0,0,1,.58-2.21,2.88,2.88,0,0,1,1.75-.59,3.17,3.17,0,0,1,1.17.12c.23.12.58.12.7.23l-.23.82a2.21,2.21,0,0,1-.59-.23,3.14,3.14,0,0,0-1.16-.12,1,1,0,0,0-.59.12.61.61,0,0,0-.47.23l-.35.35a.74.74,0,0,0-.11.47.72.72,0,0,0,.11.46l.35.35c.12.12.36.24.47.35l.7.35c.24.12.59.24.82.36a2.34,2.34,0,0,1,.7.46,1.21,1.21,0,0,1,.47.59,1.83,1.83,0,0,1-.47,2.33,3.35,3.35,0,0,1-2,.47,4.73,4.73,0,0,1-1.41-.12,4,4,0,0,0-.7-.23l.24-.82a.36.36,0,0,1,.23.12.45.45,0,0,0,.35.11,5.15,5.15,0,0,0,.58.12A1,1,0,0,1,294,44.37Z"/><path class="cls-2" d="M299.6,41.45a6.76,6.76,0,0,1,.23-1.64,10.75,10.75,0,0,1,.7-1.16,1.66,1.66,0,0,1,1.05-.7,4.07,4.07,0,0,1,1.17-.24,2.82,2.82,0,0,1,2.1.82,4,4,0,0,1,.82,2.68v.47h-5a2.75,2.75,0,0,0,.7,2,2.42,2.42,0,0,0,2,.7,3.51,3.51,0,0,0,1.17-.12c.23-.12.47-.12.58-.23l.12.81c-.12.12-.35.12-.7.24a4.63,4.63,0,0,1-1.28.11,6.76,6.76,0,0,1-1.64-.23,2.48,2.48,0,0,1-1.05-.82A3.61,3.61,0,0,1,300,43,3.18,3.18,0,0,1,299.6,41.45Zm5.13-.59a3.92,3.92,0,0,0-.46-1.75,1.59,1.59,0,0,0-1.4-.58,1.76,1.76,0,0,0-.82.23c-.24.12-.47.35-.7.47a2.39,2.39,0,0,0-.47.7,7.89,7.89,0,0,0-.23.93Z"/><path class="cls-2" d="M310.1,37.83h2.81v.82H310.1v3.73a2.26,2.26,0,0,0,.12.94c.12.23.12.46.35.58s.24.23.47.23.35.12.58.12a2.26,2.26,0,0,0,.94-.12c.23-.11.35-.11.58-.23l.23.7a1,1,0,0,1-.7.23,3.14,3.14,0,0,1-1.05.12,3.54,3.54,0,0,1-1.17-.12,1.06,1.06,0,0,1-.7-.46,2.39,2.39,0,0,1-.35-.94,4.59,4.59,0,0,1-.11-1.28V35.61l.93-.12v2.34Z"/><path class="cls-2" d="M320.73,38.65c-.23.23-.47.58-.82.93L318.86,41a19.4,19.4,0,0,0-1.17,1.64c-.35.58-.7,1.05-1.05,1.63h4.21v.82h-5.26v-.7c.24-.47.59-.94.94-1.52s.7-1.05,1.05-1.64a7.57,7.57,0,0,1,1.16-1.51c.35-.47.7-.82.94-1.17h-3.74v-.82h4.91v.94Z"/><path class="cls-2" d="M323.65,41.45a6.76,6.76,0,0,1,.23-1.64,12.65,12.65,0,0,1,.7-1.16,1.71,1.71,0,0,1,1.05-.7,4.07,4.07,0,0,1,1.17-.24,2.82,2.82,0,0,1,2.1.82,4,4,0,0,1,.82,2.68v.47h-5a2.75,2.75,0,0,0,.7,2,2.42,2.42,0,0,0,2,.7,3.51,3.51,0,0,0,1.17-.12c.24-.12.47-.12.59-.23l.11.81c-.11.12-.35.12-.7.24a4.63,4.63,0,0,1-1.28.11,6.76,6.76,0,0,1-1.64-.23,2.61,2.61,0,0,1-1.05-.82A3.82,3.82,0,0,1,324,43,3.18,3.18,0,0,1,323.65,41.45Zm5.14-.59a3.92,3.92,0,0,0-.47-1.75,1.59,1.59,0,0,0-1.4-.58,1.76,1.76,0,0,0-.82.23c-.23.12-.47.35-.7.47a2.6,2.6,0,0,0-.47.7c-.11.23-.11.58-.23.93Z"/><path class="cls-2" d="M333.34,38.18a6.15,6.15,0,0,1,1.05-.23,7,7,0,0,1,1.63-.12,4.59,4.59,0,0,1,1.41.23,1.22,1.22,0,0,1,.81.7,2.23,2.23,0,0,1,.47,1.05,4.29,4.29,0,0,1,.12,1.29v4h-.94V41.33a4.59,4.59,0,0,0-.11-1.28,6.93,6.93,0,0,0-.35-.82,1.21,1.21,0,0,0-.59-.47,2.38,2.38,0,0,0-.93-.11,2.72,2.72,0,0,0-1.05.11,2.44,2.44,0,0,0-.59.12v6.3h-.93v-7Z"/><path class="cls-2" d="M347.7,37.6a5.31,5.31,0,0,1-.23,1.28,1.79,1.79,0,0,1-.59.93,3.46,3.46,0,0,1-.81.59,3.67,3.67,0,0,1-1.06.23A3.6,3.6,0,0,1,344,40.4a2,2,0,0,1-.81-.59,2.47,2.47,0,0,1-.59-.93,4.43,4.43,0,0,1-.23-1.28,5.3,5.3,0,0,1,.23-1.29,2.47,2.47,0,0,1,.59-.93,3.46,3.46,0,0,1,.81-.59,3.6,3.6,0,0,1,1.05-.23,3.67,3.67,0,0,1,1.06.23,2,2,0,0,1,.81.59,2.47,2.47,0,0,1,.59.93A5.3,5.3,0,0,1,347.7,37.6Zm-.47,0a3.48,3.48,0,0,0-.11-1.06,1.91,1.91,0,0,0-.47-.81,2.39,2.39,0,0,0-.7-.47A2.17,2.17,0,0,0,345,35a2.65,2.65,0,0,0-.93.23,1.45,1.45,0,0,0-.7.47,1.91,1.91,0,0,0-.47.81,3.48,3.48,0,0,0-.11,1.06,3.42,3.42,0,0,0,.11,1,1.91,1.91,0,0,0,.47.81,2.39,2.39,0,0,0,.7.47,2.12,2.12,0,0,0,.93.23,2.7,2.7,0,0,0,.94-.23,2.39,2.39,0,0,0,.7-.47,1.91,1.91,0,0,0,.47-.81A3.42,3.42,0,0,0,347.23,37.6Zm-1.4,1.63a2.21,2.21,0,0,0-.47-.7c-.11-.23-.23-.35-.35-.58h-.7v1.28h-.46V36.08a.85.85,0,0,0,.46-.12c.24-.12.35,0,.47,0a2.4,2.4,0,0,1,1.05.23.82.82,0,0,1,.35.7c0,.24,0,.36-.11.47a1.55,1.55,0,0,1-.47.35.42.42,0,0,1,.12.24c.11.11.11.23.23.35s.12.23.23.35.12.23.24.35h-.59Zm-1.52-1.63h.7a.41.41,0,0,0,.35-.12l.24-.23c0-.12.12-.12.12-.24s0-.23-.12-.23-.12-.12-.24-.24a.43.43,0,0,1-.23-.11h-.82V37.6Z"/></svg>